<?xml version="1.0" encoding="utf-8"?><svg xmlns="http://www.w3.org/2000/svg" xmlns:xlink="http://www.w3.org/1999/xlink"><symbol viewBox="0 0 48 49" id="arrow-up-broken" xmlns="http://www.w3.org/2000/svg"><path d="M24 8.5l-12 12m12-12l12 12m-12-12v21m0 11v-5" stroke-width="1.5" stroke-linecap="round" stroke-linejoin="round"/></symbol><symbol viewBox="0 0 32 32" id="close" xmlns="http://www.w3.org/2000/svg"><path d="M16 2C8.2 2 2 8.2 2 16s6.2 14 14 14 14-6.2 14-14S23.8 2 16 2zm0 26C9.4 28 4 22.6 4 16S9.4 4 16 4s12 5.4 12 12-5.4 12-12 12z"/><path d="M21.4 23L16 17.6 10.6 23 9 21.4l5.4-5.4L9 10.6 10.6 9l5.4 5.4L21.4 9l1.6 1.6-5.4 5.4 5.4 5.4-1.6 1.6z"/></symbol><symbol viewBox="0 0 24 24" id="edit" xmlns="http://www.w3.org/2000/svg"><path d="M18.988 2.012l3 3L20.5 6.5l-3-3 1.488-1.488zM8 16l2.5-.5 7-7-2-2-7 7L8 16z"/><path d="M19.5 19.5h-15v-15H12L13.847 3H5c-1.103 0-2 .896-2 2v14c0 1.104.897 2 2 2h14a2 2 0 002-2v-8.668L19.5 12.5v7z"/></symbol><symbol viewBox="0 0 32 32" id="facebook" xmlns="http://www.w3.org/2000/svg"><g clip-path="url(#dclip0_1_443)"><path fill-rule="evenodd" clip-rule="evenodd" d="M5.334 16a10.666 10.666 0 1112 10.584v-7.918H20A1.333 1.333 0 0020 16h-2.666v-2.667A1.333 1.333 0 0118.667 12h.667a1.333 1.333 0 100-2.667h-.667a4 4 0 00-4 4V16H12a1.333 1.333 0 000 2.666h2.667v7.918A10.666 10.666 0 015.334 16zM16 29.333c7.364 0 13.334-5.97 13.334-13.333 0-7.364-5.97-13.334-13.334-13.334S2.667 8.636 2.667 16 8.637 29.333 16 29.333z"/></g><defs><clipPath id="dclip0_1_443"><path d="M0 0h32v32H0z"/></clipPath></defs></symbol><symbol viewBox="0 0 32 32" id="instagram" xmlns="http://www.w3.org/2000/svg"><path d="M10.4 2.778h11.2a7.739 7.739 0 017.734 7.733v11.2a7.733 7.733 0 01-7.734 7.734H10.4a7.739 7.739 0 01-7.733-7.734v-11.2A7.733 7.733 0 0110.4 2.778zm-.266 2.666a4.8 4.8 0 00-4.8 4.8v11.734c0 2.653 2.146 4.8 4.8 4.8h11.733a4.8 4.8 0 004.8-4.8V10.244c0-2.653-2.147-4.8-4.8-4.8H10.134zm12.866 2a1.666 1.666 0 110 3.333 1.666 1.666 0 010-3.332zm-7 2a6.667 6.667 0 110 13.335 6.667 6.667 0 010-13.335zm0 2.667a4 4 0 100 8 4 4 0 000-8z"/></symbol><symbol viewBox="0 0 40 40" id="menu" xmlns="http://www.w3.org/2000/svg"><path d="M5 30v-3.333h30V30H5zm0-8.333v-3.334h30v3.334H5zm0-8.334V10h30v3.333H5z"/></symbol><symbol viewBox="0 0 32 32" id="youtube" xmlns="http://www.w3.org/2000/svg"><path d="M18.667 16L14 19.005v-6.01L18.667 16z" stroke-width="2" stroke-linecap="round" stroke-linejoin="round"/><path d="M2.667 17.064v-2.128c0-4.349 0-6.524 1.207-7.923 1.208-1.4 3.109-1.46 6.91-1.582 1.8-.057 3.64-.098 5.216-.098s3.415.04 5.216.098c3.802.122 5.703.182 6.91 1.582 1.206 1.4 1.208 3.575 1.208 7.923v2.126c0 4.35 0 6.525-1.207 7.925-1.208 1.399-3.108 1.46-6.91 1.58-1.8.059-3.64.1-5.217.1-1.576 0-3.414-.041-5.216-.1-3.801-.12-5.702-.18-6.91-1.58-1.208-1.4-1.207-3.576-1.207-7.923z" stroke-width="2"/></symbol></svg>